<svg width="23" height="23" viewBox="0 0 23 23" fill="none" xmlns="http://www.w3.org/2000/svg">
<path d="M20.132 8.41964C20.0744 8.24983 19.9683 8.10061 19.8268 7.99043C19.6853 7.88024 19.5146 7.81389 19.3359 7.79959L14.1067 7.38408L11.8439 2.37506C11.7718 2.21373 11.6546 2.07671 11.5064 1.98052C11.3582 1.88434 11.1853 1.8331 11.0086 1.83301C10.8319 1.83291 10.659 1.88395 10.5106 1.97998C10.3623 2.076 10.2449 2.2129 10.1727 2.37415L7.90989 7.38408L2.68073 7.79959C2.50504 7.8135 2.33708 7.87774 2.19694 7.98462C2.05681 8.0915 1.95043 8.23648 1.89053 8.40224C1.83064 8.56799 1.81976 8.74749 1.85921 8.91926C1.89866 9.09103 1.98676 9.2478 2.11297 9.37081L5.97727 13.1379L4.61059 19.0559C4.5691 19.235 4.5824 19.4225 4.64877 19.594C4.71514 19.7655 4.83152 19.913 4.98281 20.0175C5.1341 20.1221 5.31331 20.1787 5.49718 20.1801C5.68105 20.1815 5.8611 20.1276 6.01396 20.0254L11.0083 16.6958L16.0026 20.0254C16.1589 20.1291 16.3431 20.1825 16.5306 20.1784C16.7181 20.1743 16.8999 20.1129 17.0514 20.0024C17.2029 19.8919 17.317 19.7377 17.3783 19.5604C17.4395 19.3832 17.4451 19.1914 17.3941 19.0109L15.7165 13.1406L19.877 9.39649C20.1495 9.15067 20.2494 8.76727 20.132 8.41964Z" fill="#B3E3FF"/>
</svg>
